<svg id="Layer_1" data-name="Layer 1" xmlns="http://www.w3.org/2000/svg" viewBox="0 0 664.345 124">
  <defs>
    <style>
      .cls-1 {
        fill: #ffffff;
      }

      .cls-2 {
        fill: #ffffff;
      }
    </style>
  </defs>
  <g>
    <polygon class="cls-1" points="625.707 121.155 664.345 97.683 0 97.683 625.707 121.155"/>
    <g>
      <g>
        <path class="cls-2" d="M61.3,49.45q0.224,5.61,2.3,8.693t6.561,3.084q4.485,0,6.45-2.692a12.35,12.35,0,0,0,1.963-7.4V1h25.461V50.012q0,16.378-9.029,24.732T70.162,83.1q-16.713,0-25.236-8.637T35.952,49.45H61.3Z"/>
        <path class="cls-2" d="M116.934,1h37.4a47.173,47.173,0,0,1,13.437,1.627,22.863,22.863,0,0,1,8.567,4.43,15.688,15.688,0,0,1,4.534,6.561,23.329,23.329,0,0,1,1.344,7.908,20.227,20.227,0,0,1-2.345,9.814,18.54,18.54,0,0,1-7.592,7.235q12.18,5.5,12.18,18.956a25.8,25.8,0,0,1-1.568,8.973,18.387,18.387,0,0,1-5.263,7.515,26.74,26.74,0,0,1-9.631,5.16,48.465,48.465,0,0,1-14.667,1.907H116.934V1Zm23.218,30.4h9.982q4.711,0,6.393-1.57a5.834,5.834,0,0,0,1.683-4.487,5.838,5.838,0,0,0-1.683-4.486q-1.682-1.569-6.393-1.57h-9.982V31.392Zm0,31.406H150.7q5.72,0,7.739-1.907a7.045,7.045,0,0,0,2.019-5.384,7.2,7.2,0,0,0-2.019-5.5q-2.018-1.907-7.739-1.907H140.152V62.8Z"/>
        <path class="cls-2" d="M258.6,81.081V41.375l-11.89,39.706H228.761L216.872,41.375V81.081H194.1V1h29.163l14.805,48.679L252.876,1h29.05V81.081H258.6Z"/>
      </g>
      <path class="cls-2" d="M305.559,0.835h23.724V8.171H314.24v5.293h14.114V20.8H314.24v5.85h16.017l-0.743,7.336H305.559V0.835Z"/>
      <path class="cls-2" d="M334.714,0.835h8.914V26.417H358.3l-0.789,7.568h-22.8V0.835Z"/>
      <path class="cls-2" d="M362.384,0.835h23.724V8.171H371.065v5.293h14.114V20.8H371.065v5.85h16.017l-0.743,7.336H362.384V0.835Z"/>
      <path class="cls-2" d="M420.881,21.867a16.216,16.216,0,0,1-1.16,5.107,11.946,11.946,0,0,1-2.786,4.109,12.837,12.837,0,0,1-4.5,2.739,20.206,20.206,0,0,1-13.278-.255,13.035,13.035,0,0,1-4.921-3.529,15.023,15.023,0,0,1-2.925-5.455,23.74,23.74,0,0,1-.975-6.987,24.02,24.02,0,0,1,1-7.126,15.162,15.162,0,0,1,3.018-5.548A13.843,13.843,0,0,1,399.362,1.3,17.563,17.563,0,0,1,406.4,0q6.129,0,9.587,3.041a14.155,14.155,0,0,1,4.387,8.659L411.5,12.721a12.558,12.558,0,0,0-.6-2,5.1,5.1,0,0,0-1-1.6,4.5,4.5,0,0,0-1.555-1.068,5.693,5.693,0,0,0-2.228-.395q-6.362,0-6.361,9.7a19.331,19.331,0,0,0,.465,4.573,8.478,8.478,0,0,0,1.323,3.041,4.989,4.989,0,0,0,2.042,1.671,6.544,6.544,0,0,0,2.624.511q4.874,0,5.571-5.293h9.1Z"/>
      <path class="cls-2" d="M432.674,8.4H423.11V0.835h28.042V8.4h-9.564V33.985h-8.914V8.4Z"/>
      <path class="cls-2" d="M481.608,11.328a12.159,12.159,0,0,1-1.207,5.548,9.4,9.4,0,0,1-3.714,3.877l6.778,13.232H474.04l-5.432-11.421H463.78V33.985h-8.5V0.835h13.092a19.889,19.889,0,0,1,6.408.882,10.827,10.827,0,0,1,4.062,2.345,8.221,8.221,0,0,1,2.135,3.366A12.38,12.38,0,0,1,481.608,11.328ZM463.78,15.646h4.364a5.427,5.427,0,0,0,3.784-1.044,3.954,3.954,0,0,0,1.091-2.995,3.634,3.634,0,0,0-1.161-2.879,6.072,6.072,0,0,0-3.993-1.021H463.78v7.939Z"/>
      <path class="cls-2" d="M486.9,0.835h8.914V33.985H486.9V0.835Z"/>
      <path class="cls-2" d="M531.285,21.867a16.216,16.216,0,0,1-1.16,5.107,11.946,11.946,0,0,1-2.786,4.109,12.837,12.837,0,0,1-4.5,2.739,20.206,20.206,0,0,1-13.278-.255,13.035,13.035,0,0,1-4.921-3.529,15.023,15.023,0,0,1-2.925-5.455,23.74,23.74,0,0,1-.975-6.987,24.02,24.02,0,0,1,1-7.126,15.162,15.162,0,0,1,3.018-5.548A13.843,13.843,0,0,1,509.766,1.3,17.563,17.563,0,0,1,516.8,0q6.129,0,9.587,3.041a14.155,14.155,0,0,1,4.387,8.659l-8.868,1.021a12.558,12.558,0,0,0-.6-2,5.1,5.1,0,0,0-1-1.6,4.5,4.5,0,0,0-1.555-1.068,5.693,5.693,0,0,0-2.228-.395q-6.362,0-6.361,9.7a19.331,19.331,0,0,0,.465,4.573,8.478,8.478,0,0,0,1.323,3.041,4.989,4.989,0,0,0,2.042,1.671,6.544,6.544,0,0,0,2.624.511q4.874,0,5.571-5.293h9.1Z"/>
      <path class="cls-2" d="M553.8,0.835l11.514,33.149h-9.239l-1.9-6.36H542.985l-1.857,6.36h-8.961L543.682,0.835H553.8Zm-8.635,19.685h6.825L548.6,9.1Z"/>
      <path class="cls-2" d="M569.077,0.835h8.914V26.417h14.671l-0.789,7.568h-22.8V0.835Z"/>
      <path class="cls-2" d="M335.132,69.058a16.218,16.218,0,0,1-1.16,5.107,11.946,11.946,0,0,1-2.786,4.109,12.831,12.831,0,0,1-4.5,2.739,20.209,20.209,0,0,1-13.278-.255,13.047,13.047,0,0,1-4.921-3.528,15.024,15.024,0,0,1-2.925-5.456,23.74,23.74,0,0,1-.975-6.987,24.02,24.02,0,0,1,1-7.126,15.155,15.155,0,0,1,3.018-5.548,13.853,13.853,0,0,1,5.014-3.622,17.57,17.57,0,0,1,7.033-1.3q6.129,0,9.587,3.041a14.154,14.154,0,0,1,4.387,8.658l-8.868,1.021a12.549,12.549,0,0,0-.6-2,5.092,5.092,0,0,0-1-1.6,4.494,4.494,0,0,0-1.555-1.068,5.7,5.7,0,0,0-2.228-.395q-6.362,0-6.361,9.7a19.338,19.338,0,0,0,.465,4.573,8.476,8.476,0,0,0,1.323,3.041,5,5,0,0,0,2.042,1.672,6.556,6.556,0,0,0,2.624.511q4.874,0,5.571-5.293h9.1Z"/>
      <path class="cls-2" d="M354.818,47.19a18.527,18.527,0,0,1,6.918,1.207,13.827,13.827,0,0,1,5.084,3.436,14.709,14.709,0,0,1,3.134,5.432,24.835,24.835,0,0,1-.023,14.485,15.192,15.192,0,0,1-3.18,5.525A13.919,13.919,0,0,1,361.6,80.78a18.71,18.71,0,0,1-7.01,1.23,18.51,18.51,0,0,1-6.918-1.207,13.8,13.8,0,0,1-5.084-3.435,14.689,14.689,0,0,1-3.134-5.432,24.835,24.835,0,0,1,.023-14.485,15.188,15.188,0,0,1,3.18-5.525,13.931,13.931,0,0,1,5.153-3.505A18.7,18.7,0,0,1,354.818,47.19Zm-7.2,17.41q0,4.783,1.765,7.266a6.955,6.955,0,0,0,10.655,0q1.741-2.483,1.741-7.266t-1.741-7.265a6.955,6.955,0,0,0-10.655,0Q347.621,59.819,347.621,64.6Z"/>
      <path class="cls-2" d="M375.943,48.026h7.8l11.932,18.988V48.026h8.4V81.175h-7.707L384.346,62.233V81.175h-8.4V48.026Z"/>
      <path class="cls-2" d="M417.82,55.594h-9.564V48.026H436.3v7.567h-9.564V81.175H417.82V55.594Z"/>
      <path class="cls-2" d="M466.754,58.519a12.157,12.157,0,0,1-1.207,5.548,9.4,9.4,0,0,1-3.714,3.877l6.778,13.232h-9.425l-5.432-11.421h-4.828V81.175h-8.5V48.026h13.092a19.879,19.879,0,0,1,6.408.882,10.821,10.821,0,0,1,4.062,2.344,8.224,8.224,0,0,1,2.135,3.366A12.38,12.38,0,0,1,466.754,58.519Zm-17.828,4.318h4.364a5.425,5.425,0,0,0,3.784-1.045,3.954,3.954,0,0,0,1.091-2.995A3.631,3.631,0,0,0,457,55.919a6.07,6.07,0,0,0-3.993-1.022h-4.085v7.94Z"/>
      <path class="cls-2" d="M492.474,48.026l11.514,33.149H494.75l-1.9-6.361H481.657L479.8,81.175H470.84l11.514-33.149h10.121Zm-8.635,19.685h6.825L487.275,56.29Z"/>
      <path class="cls-2" d="M535.28,69.058a16.218,16.218,0,0,1-1.16,5.107,11.946,11.946,0,0,1-2.786,4.109,12.831,12.831,0,0,1-4.5,2.739,20.209,20.209,0,0,1-13.278-.255,13.047,13.047,0,0,1-4.921-3.528,15.024,15.024,0,0,1-2.925-5.456,23.74,23.74,0,0,1-.975-6.987,24.02,24.02,0,0,1,1-7.126,15.155,15.155,0,0,1,3.018-5.548,13.853,13.853,0,0,1,5.014-3.622,17.57,17.57,0,0,1,7.033-1.3q6.129,0,9.587,3.041a14.154,14.154,0,0,1,4.387,8.658L525.9,59.911a12.549,12.549,0,0,0-.6-2,5.092,5.092,0,0,0-1-1.6,4.494,4.494,0,0,0-1.555-1.068,5.7,5.7,0,0,0-2.228-.395q-6.362,0-6.361,9.7a19.338,19.338,0,0,0,.465,4.573,8.476,8.476,0,0,0,1.323,3.041,5,5,0,0,0,2.042,1.672,6.556,6.556,0,0,0,2.624.511q4.874,0,5.571-5.293h9.1Z"/>
      <path class="cls-2" d="M547.072,55.594h-9.564V48.026h28.042v7.567h-9.564V81.175h-8.914V55.594Z"/>
      <path class="cls-2" d="M583.517,47.19a18.527,18.527,0,0,1,6.918,1.207,13.827,13.827,0,0,1,5.084,3.436,14.709,14.709,0,0,1,3.134,5.432,24.835,24.835,0,0,1-.023,14.485,15.192,15.192,0,0,1-3.18,5.525A13.919,13.919,0,0,1,590.3,80.78a18.71,18.71,0,0,1-7.01,1.23,18.51,18.51,0,0,1-6.918-1.207,13.8,13.8,0,0,1-5.084-3.435,14.689,14.689,0,0,1-3.134-5.432,24.835,24.835,0,0,1,.023-14.485,15.188,15.188,0,0,1,3.18-5.525,13.931,13.931,0,0,1,5.153-3.505A18.7,18.7,0,0,1,583.517,47.19Zm-7.2,17.41q0,4.783,1.765,7.266a6.955,6.955,0,0,0,10.655,0q1.741-2.483,1.741-7.266t-1.741-7.265a6.955,6.955,0,0,0-10.655,0Q576.321,59.819,576.321,64.6Z"/>
      <path class="cls-2" d="M630.967,58.519a12.157,12.157,0,0,1-1.207,5.548,9.4,9.4,0,0,1-3.714,3.877l6.778,13.232H623.4l-5.432-11.421h-4.828V81.175h-8.5V48.026h13.092a19.879,19.879,0,0,1,6.408.882,10.821,10.821,0,0,1,4.062,2.344,8.224,8.224,0,0,1,2.135,3.366A12.38,12.38,0,0,1,630.967,58.519Zm-17.828,4.318H617.5a5.425,5.425,0,0,0,3.784-1.045,3.954,3.954,0,0,0,1.091-2.995,3.631,3.631,0,0,0-1.161-2.878,6.07,6.07,0,0,0-3.993-1.022h-4.085v7.94Z"/>
      <path class="cls-2" d="M643.178,70.265a4.935,4.935,0,0,0,1.718,3.459,6.71,6.71,0,0,0,4.225,1.137,6.174,6.174,0,0,0,3.551-.835,2.729,2.729,0,0,0,1.184-2.368,2.572,2.572,0,0,0-.789-1.927,5.871,5.871,0,0,0-2.879-1.184l-4.411-.836q-5.525-1.02-8.171-3.435a8.6,8.6,0,0,1-2.646-6.686q0-5.153,3.552-7.776t9.772-2.624a19.987,19.987,0,0,1,6.175.836,12.154,12.154,0,0,1,4.179,2.228,9.31,9.31,0,0,1,2.46,3.227,12.748,12.748,0,0,1,1.068,3.831l-8.635.882a5.031,5.031,0,0,0-1.6-2.971,5.752,5.752,0,0,0-3.691-.975,5.906,5.906,0,0,0-3.366.766,2.4,2.4,0,0,0-1.091,2.066,2.245,2.245,0,0,0,.882,1.857A6.666,6.666,0,0,0,647.5,60l4.5,0.882q5.85,1.162,8.31,3.738a9.066,9.066,0,0,1,2.461,6.523,11.442,11.442,0,0,1-.835,4.457,8.75,8.75,0,0,1-2.554,3.412,12.284,12.284,0,0,1-4.364,2.205,21.868,21.868,0,0,1-6.221.789q-13.789-.094-14.485-11.746h8.867Z"/>
    </g>
  </g>
</svg>
